# xmcd
# 
# Track frame offsets:
#     150
#     14363
#     36000
#     54208
#     66890
#     83786
#     98912
#     113389
#     129765
#     150894
#     169085
#     192256
#     204757
#     215191
#     234686
#     251192
#     266187
#     280714
#     293487
#     309656
# 
# Disc length: 4293
# 
# Revision: 1
# Processed by: cddbd v1.5.2PL0 Copyright (c) Steve Scherf et al.
# Submitted via: fre:ac v1.0.31
# 
DISCID=0d10c314
DTITLE=Jonny Hill - Solang dein Traum dich trägt and Wer wie ich viel unterwegs war [CD 1)
DYEAR=2001
DGENRE=
TTITLE0=Wer wie ich viel unterwegs war
TTITLE1=Ruf Teddybär Eins-Vier
TTITLE2=Sylvia's Mutter
TTITLE3=Green Green Grass Of Home
TTITLE4=Rosen für Mama
TTITLE5=Der Junge und die Träume
TTITLE6=In dem kleinen Haus am See
TTITLE7=Meine Liebe ist bei dir zu Hause
TTITLE8=Papillon
TTITLE9=Mach's gut mein treuer Freund
TTITLE10=Tommy und Strolch
TTITLE11=Fünfhundert Meilen von Zu Haus
TTITLE12=König der Landstraße
TTITLE13=Der alte Mann
TTITLE14=Liebe, die in Träumen lebt
TTITLE15=Niemals mehr
TTITLE16=Wenn der Briefträger klingelt
TTITLE17=Mein bester Freund
TTITLE18=Uns're kleine Band
TTITLE19=Es war schön
EXTD=
EXTT0=
EXTT1=
EXTT2=
EXTT3=
EXTT4=
EXTT5=
EXTT6=
EXTT7=
EXTT8=
EXTT9=
EXTT10=
EXTT11=
EXTT12=
EXTT13=
EXTT14=
EXTT15=
EXTT16=
EXTT17=
EXTT18=
EXTT19=
PLAYORDER=
